<svg width="16" height="16" viewBox="0 0 16 16" fill="none" xmlns="http://www.w3.org/2000/svg">
<path d="M13.2375 2.54688C11.5219 2.48438 9.74687 2.45 7.92188 2.45313C6.15 2.45313 4.42812 2.4875 2.75938 2.54688C1.325 2.6 0.1875 3.77813 0.1875 5.21563V10.7844C0.1875 12.2219 1.325 13.4 2.7625 13.4531C4.47188 13.5156 6.23438 13.55 8.05 13.5469C9.83125 13.5469 11.5625 13.5125 13.2406 13.4531C14.6781 13.4 15.8125 12.2219 15.8125 10.7844V5.21563C15.8125 3.77813 14.675 2.6 13.2375 2.54688Z" fill="#FF0000"/>
<path d="M5.86406 16H4.02891L6.1875 5.8539H12.6633L12.3328 7.42187H7.69922L7.05234 10.375H11.2992L10.9828 11.8867H6.73594L5.86406 16Z" fill="white"/>
</svg>
